<?xml version="1.0" standalone="no"?>
<!DOCTYPE svg PUBLIC "-//W3C//DTD SVG 20010904//EN"
 "http://www.w3.org/TR/2001/REC-SVG-20010904/DTD/svg10.dtd">
<svg version="1.0" xmlns="http://www.w3.org/2000/svg"
 width="1024.000000pt" height="1024.000000pt" viewBox="0 0 1024.000000 1024.000000"
 preserveAspectRatio="xMidYMid meet">

<g transform="translate(0.000000,1024.000000) scale(0.100000,-0.100000)"
fill="#000000" stroke="none">
<path d="M2498 6623 c12 -2 32 -2 45 0 12 2 2 4 -23 4 -25 0 -35 -2 -22 -4z"/>
<path d="M1694 6088 l-19 -23 23 19 c21 18 27 26 19 26 -2 0 -12 -10 -23 -22z"/>
<path d="M2979 6013 c-13 -16 -12 -17 4 -4 9 7 17 15 17 17 0 8 -8 3 -21 -13z"/>
<path d="M3166 5856 c-76 -73 -141 -134 -145 -135 -3 0 -6 -5 -6 -10 0 -5 -11
-19 -24 -30 -20 -18 -25 -18 -38 -6 -8 8 -20 15 -26 15 -8 0 -7 -3 2 -9 9 -6
10 -11 2 -15 -19 -12 -51 -15 -51 -5 0 5 6 9 13 9 8 0 14 7 14 15 0 8 -7 15
-14 15 -8 0 -11 -4 -8 -10 4 -6 -16 -10 -52 -10 -33 0 -64 -5 -71 -12 -9 -9
-12 -9 -12 -1 0 7 8 18 19 25 10 7 18 16 17 20 0 4 7 16 16 28 10 11 15 20 11
20 -3 0 2 10 13 23 24 26 56 77 50 77 -5 0 -236 -318 -236 -326 0 -3 5 -2 12
2 7 4 8 3 4 -5 -4 -6 -11 -9 -15 -7 -4 3 -25 -16 -46 -41 -21 -25 -57 -54 -81
-64 -62 -28 -94 -70 -94 -125 0 -72 57 -114 133 -100 37 7 83 51 172 166 88
113 186 219 444 483 80 81 143 147 141 147 -3 0 -67 -60 -144 -134z m-441
-247 c-10 -15 -25 -10 -19 6 4 8 10 12 15 9 5 -3 7 -10 4 -15z"/>
<path d="M1590 5950 c-6 -11 -8 -20 -6 -20 3 0 10 9 16 20 6 11 8 20 6 20 -3
0 -10 -9 -16 -20z"/>
<path d="M2900 5900 c-12 -16 -19 -30 -16 -30 2 0 14 14 26 30 12 17 19 30 16
30 -2 0 -14 -13 -26 -30z"/>
<path d="M2119 5903 c-13 -16 -12 -17 4 -4 9 7 17 15 17 17 0 8 -8 3 -21 -13z"/>
<path d="M2039 5833 l-34 -38 38 34 c20 19 37 36 37 38 0 8 -8 0 -41 -34z"/>
<path d="M1525 5839 c-4 -6 -5 -12 -2 -15 2 -3 7 2 10 11 7 17 1 20 -8 4z"/>
<path d="M2623 5833 l87 -4 -15 -29 c-9 -17 -13 -30 -11 -30 10 0 35 57 29 64
-4 3 -45 5 -92 4 l-86 -2 88 -3z"/>
<path d="M2350 5780 c-19 -11 -30 -19 -25 -19 6 0 26 8 45 19 19 11 31 19 25
19 -5 0 -26 -8 -45 -19z"/>
<path d="M1496 5775 c-9 -26 -7 -32 5 -12 6 10 9 21 6 23 -2 3 -7 -2 -11 -11z"/>
<path d="M1957 5738 c-14 -18 -32 -49 -41 -68 -17 -36 -15 -33 41 51 36 56 36
65 0 17z"/>
<path d="M2244 5708 c-78 -69 -102 -99 -140 -174 -123 -246 -22 -525 238 -653
136 -68 279 -73 420 -16 113 46 217 142 256 235 l21 50 -71 0 -71 0 -58 -55
c-32 -31 -84 -68 -116 -83 -50 -23 -71 -27 -153 -27 -82 0 -103 4 -152 27 -76
35 -148 104 -183 175 -24 48 -29 71 -29 133 0 63 4 85 30 140 50 104 135 178
249 217 37 12 37 13 7 8 -19 -3 -50 -12 -70 -22 -50 -22 -162 -113 -162 -130
0 -9 -5 -11 -12 -7 -7 4 -10 4 -6 -1 9 -10 -9 -45 -24 -45 -6 0 -8 9 -5 21 4
16 2 19 -10 15 -11 -5 -13 -2 -9 9 5 13 1 12 -19 -2 -13 -10 -25 -23 -25 -29
0 -15 -21 -23 -41 -15 -13 5 -14 12 -8 29 5 13 14 20 19 17 8 -5 8 -11 0 -20
-8 -9 -8 -15 0 -20 5 -3 11 -4 11 -1 5 22 4 33 -3 49 -5 10 -5 17 1 17 6 0 8
7 5 15 -4 9 24 44 81 100 47 47 84 85 82 85 -2 0 -26 -19 -53 -42z m-59 -208
c3 -5 1 -10 -4 -10 -6 0 -11 5 -11 10 0 6 2 10 4 10 3 0 8 -4 11 -10z"/>
<path d="M3171 5709 c-33 -22 -61 -42 -61 -44 0 -3 14 -26 30 -52 81 -128 112
-349 71 -511 -56 -225 -224 -405 -447 -478 -78 -25 -104 -29 -204 -29 -91 1
-130 5 -190 24 -156 48 -289 138 -379 258 -98 129 -146 260 -159 428 l-7 100
-6 -65 c-4 -51 -6 -56 -7 -22 -1 30 -6 41 -14 36 -8 -5 -9 -2 -5 9 7 19 -17
24 -28 7 -4 -6 -14 -10 -23 -9 -38 3 -44 -1 -40 -25 3 -14 1 -31 -4 -38 -6 -8
-8 24 -5 87 2 55 1 87 -3 70 -11 -44 -11 -215 0 -190 6 13 7 4 3 -26 -13 -107
85 -353 190 -480 194 -233 483 -354 766 -321 192 22 382 114 513 249 74 75
108 121 152 211 61 120 79 205 79 372 1 130 -2 154 -26 233 -15 49 -35 103
-43 120 -22 44 -78 127 -85 127 -4 0 -34 -18 -68 -41z"/>
<path d="M2643 5716 c-5 -9 -29 -16 -63 -19 l-55 -3 57 -2 c48 -2 59 1 68 18
12 23 5 28 -7 6z"/>
<path d="M2955 5690 c3 -5 10 -10 16 -10 5 0 9 5 9 10 0 6 -7 10 -16 10 -8 0
-12 -4 -9 -10z"/>
<path d="M3600 5235 l0 -425 80 0 80 0 0 425 0 425 -80 0 -80 0 0 -425z"/>
<path d="M6310 5235 l0 -425 80 0 80 0 0 160 0 161 72 -3 72 -3 86 -155 86
-155 92 -3 c51 -1 92 0 92 3 0 3 -46 81 -101 172 -58 96 -96 169 -90 171 31
10 108 71 128 101 74 110 47 276 -55 343 -73 49 -128 58 -344 58 l-198 0 0
-425z m395 281 c52 -22 77 -69 72 -135 -7 -94 -70 -131 -224 -131 l-83 0 0
140 0 140 100 0 c65 0 113 -5 135 -14z"/>
<path d="M8050 5493 c0 -158 -1 -166 -16 -144 -26 36 -90 61 -162 61 -109 0
-180 -47 -228 -152 -25 -55 -29 -75 -28 -153 0 -77 4 -99 29 -153 46 -103 121
-152 229 -152 55 0 99 17 144 54 l32 28 0 -36 0 -36 75 0 75 0 0 425 0 425
-75 0 -75 0 0 -167z m-73 -223 c48 -29 75 -90 75 -169 1 -112 -45 -171 -134
-171 -93 0 -138 49 -146 160 -3 53 0 76 16 113 36 80 119 110 189 67z"/>
<path d="M1445 5620 c-4 -17 -5 -34 -2 -36 2 -3 7 10 11 27 8 42 0 50 -9 9z"/>
<path d="M1877 5603 c-10 -18 -39 -115 -35 -118 2 -3 14 25 25 60 19 58 23 80
10 58z"/>
<path d="M1716 5574 c-4 -14 -5 -28 -3 -31 3 -2 8 8 11 23 4 14 5 28 3 31 -3
2 -8 -8 -11 -23z"/>
<path d="M1281 5564 c0 -11 3 -14 6 -6 3 7 2 16 -1 19 -3 4 -6 -2 -5 -13z"/>
<path d="M1432 5550 c0 -14 2 -19 5 -12 2 6 2 18 0 25 -3 6 -5 1 -5 -13z"/>
<path d="M1702 5510 c0 -14 2 -19 5 -12 2 6 2 18 0 25 -3 6 -5 1 -5 -13z"/>
<path d="M1273 5480 c0 -25 2 -35 4 -22 2 12 2 32 0 45 -2 12 -4 2 -4 -23z"/>
<path d="M1422 5485 c0 -16 2 -22 5 -12 2 9 2 23 0 30 -3 6 -5 -1 -5 -18z"/>
<path d="M1832 5435 c0 -16 2 -22 5 -12 2 9 2 23 0 30 -3 6 -5 -1 -5 -18z"/>
<path d="M1411 5365 c-2 -49 -2 -108 -1 -130 1 -37 -1 -40 -25 -41 -18 -2 -25
2 -21 12 3 9 0 11 -12 7 -14 -5 -15 -3 -4 8 14 15 16 49 3 49 -5 0 -17 3 -27
7 -16 6 -17 5 -4 -9 8 -9 18 -14 22 -11 4 2 5 -3 2 -12 -4 -9 -13 -14 -20 -11
-8 3 -14 1 -14 -5 0 -6 -5 -7 -10 -4 -6 3 -14 -4 -19 -17 -7 -16 -11 11 -12
97 l-3 120 -4 -100 c-6 -184 46 -412 134 -586 151 -300 431 -548 738 -653 326
-112 699 -96 993 44 128 60 273 164 273 195 0 6 -22 33 -49 59 l-50 49 -105
-71 c-179 -119 -359 -179 -566 -189 -572 -28 -1077 364 -1190 922 -7 33 -16
128 -20 210 -6 132 -7 139 -9 60z m-124 -217 c-3 -8 -6 -5 -6 6 -1 11 2 17 5
13 3 -3 4 -12 1 -19z m10 -70 c-3 -7 -5 -2 -5 12 0 14 2 19 5 13 2 -7 2 -19 0
-25z"/>
<path d="M3959 5382 c-45 -23 -59 -38 -82 -83 -22 -44 -27 -63 -22 -91 17 -89
66 -125 216 -158 51 -11 101 -27 111 -37 30 -27 20 -65 -24 -86 -66 -32 -165
-2 -188 58 -9 23 -9 23 -74 7 -41 -10 -66 -21 -66 -29 0 -40 58 -107 119 -138
44 -22 176 -31 236 -16 154 39 215 191 118 293 -28 30 -80 49 -183 68 -84 16
-110 32 -110 69 0 38 21 53 80 59 46 4 52 2 86 -32 35 -35 39 -36 88 -30 77 9
77 8 64 46 -28 86 -103 127 -229 128 -76 0 -94 -4 -140 -28z"/>
<path d="M4570 5401 c-52 -17 -90 -42 -117 -78 -23 -30 -28 -46 -28 -94 0
-100 42 -137 198 -175 60 -15 115 -33 123 -42 27 -26 13 -65 -30 -86 -34 -16
-44 -17 -91 -7 -51 11 -85 37 -98 73 -5 15 -10 15 -66 1 -67 -17 -74 -29 -46
-82 71 -139 375 -151 463 -19 51 78 35 186 -34 228 -18 11 -76 30 -131 41
-111 23 -143 39 -143 72 0 38 23 59 71 64 53 6 104 -15 114 -47 6 -19 12 -20
68 -14 34 3 66 10 71 14 5 5 -1 29 -14 54 -34 70 -90 99 -199 103 -47 1 -97
-1 -111 -6z"/>
<path d="M5850 5401 c-125 -38 -203 -149 -204 -291 -1 -133 44 -219 145 -275
50 -28 61 -30 159 -30 113 1 153 13 212 68 36 34 63 86 46 91 -7 2 -36 9 -64
15 l-51 12 -35 -35 c-85 -85 -236 -39 -255 79 l-6 35 212 0 211 0 0 53 c0 171
-112 288 -275 286 -38 0 -81 -4 -95 -8z m158 -121 c18 -11 40 -36 48 -55 27
-66 29 -65 -121 -65 -77 0 -135 4 -135 9 0 38 47 106 85 121 35 15 89 10 123
-10z"/>
<path d="M7170 5401 c-41 -13 -84 -38 -107 -63 -28 -29 -57 -98 -46 -108 4 -4
36 -10 71 -12 61 -4 64 -3 78 24 18 35 62 58 109 58 52 0 95 -44 95 -98 l0
-39 -87 -6 c-166 -12 -246 -54 -273 -144 -22 -72 10 -157 71 -188 38 -20 123
-30 173 -21 19 4 56 22 81 41 l45 35 8 -33 c8 -31 9 -32 73 -35 l64 -3 -3 218
c-3 238 -11 279 -60 326 -15 14 -47 33 -71 42 -46 16 -176 19 -221 6z m200
-375 c0 -58 -41 -102 -103 -111 -95 -14 -153 57 -93 114 30 28 67 39 139 40
l57 1 0 -44z"/>
<path d="M8450 5401 c-43 -14 -84 -38 -108 -64 -26 -28 -54 -98 -44 -108 4 -4
35 -9 70 -11 61 -4 64 -3 78 24 37 72 153 78 189 9 8 -17 15 -43 15 -59 l0
-29 -89 -7 c-113 -8 -182 -29 -226 -67 -85 -75 -67 -217 34 -265 82 -40 198
-25 251 31 31 33 38 32 46 -10 l6 -35 65 0 64 0 -3 228 c-3 221 -4 228 -28
272 -38 68 -92 94 -205 97 -49 1 -101 -1 -115 -6z m200 -370 c0 -95 -133 -157
-202 -94 -21 19 -24 62 -5 86 18 26 84 46 150 47 l57 0 0 -39z"/>
<path d="M9122 5390 c-18 -11 -41 -34 -52 -52 l-20 -33 0 48 0 47 -75 0 -75 0
0 -295 0 -295 75 0 75 0 0 172 c0 151 2 177 20 213 25 51 65 75 132 78 29 1
56 6 60 12 4 5 8 36 8 68 l0 57 -57 0 c-40 0 -68 -6 -91 -20z"/>
<path d="M5000 5181 c0 -225 5 -261 43 -313 62 -85 236 -91 315 -12 19 19 36
34 38 34 2 0 4 -18 4 -40 l0 -40 70 0 70 0 0 295 0 295 -75 0 -75 0 0 -195 0
-195 -33 -36 c-40 -44 -110 -58 -153 -30 -47 31 -54 68 -54 271 l0 185 -75 0
-75 0 0 -219z"/>
<path d="M1386 5225 c-3 -8 -1 -15 4 -15 6 0 10 7 10 15 0 8 -2 15 -4 15 -2 0
-6 -7 -10 -15z"/>
</g>
</svg>
